<?xml version="1.0" encoding="utf-8"?>
<svg viewBox="0 0 500 500" xmlns="http://www.w3.org/2000/svg">
  <defs/>
  <rect width="100%" height="100%" fill="#edf2f1"/>
  <path d="M 40.25 351.18 L 40.25 347.68 L 50.4 347.68 Q 58.1 347.68 63.35 345.23 Q 68.6 342.78 72.45 336.83 Q 76.3 330.88 79.8 320.38 L 156.1 101.28 L 173.95 101.28 L 261.8 329.13 Q 264.6 336.13 267.4 340.15 Q 270.2 344.18 273.88 345.93 Q 277.55 347.68 282.45 347.68 L 287 347.68 L 287 351.18 L 190.75 351.18 L 190.75 347.68 L 198.8 347.68 Q 212.1 347.68 218.05 344.53 Q 224 341.38 224 333.33 Q 224 331.23 223.65 328.95 Q 223.3 326.68 222.78 323.88 Q 222.25 321.08 220.85 317.93 L 199.5 260.53 L 104.65 260.53 L 85.4 315.48 Q 84.35 318.28 83.65 321.08 Q 82.95 323.88 82.6 326.15 Q 82.25 328.43 82.25 330.53 Q 82.25 339.98 90.65 343.83 Q 99.05 347.68 117.6 347.68 L 125.65 347.68 L 125.65 351.18 Z M 105.7 257.03 L 198.1 257.03 L 172.55 188.78 Q 168 176.88 164.15 166.03 Q 160.3 155.18 156.98 145.2 Q 153.65 135.23 150.85 125.78 Q 148.4 133.48 146.3 139.95 Q 144.2 146.43 142.1 152.73 Q 140 159.03 137.38 166.2 Q 134.75 173.38 131.6 182.83 Z M 272.3 351.18 L 272.3 347.68 L 276.85 347.68 Q 286.3 347.68 292.78 344.88 Q 299.25 342.08 302.4 336.48 Q 305.55 330.88 305.55 322.48 L 305.55 128.58 Q 305.55 120.53 302.4 115.28 Q 299.25 110.03 292.78 107.4 Q 286.3 104.78 276.85 104.78 L 272.3 104.78 L 272.3 101.28 L 370.65 101.28 Q 414.75 101.28 435.75 120.7 Q 456.75 140.13 456.75 174.43 Q 456.75 190.18 451.85 204.35 Q 446.95 218.53 435.93 229.73 Q 424.9 240.93 406.88 247.4 Q 388.85 253.88 362.95 253.88 L 340.9 253.88 L 340.9 322.48 Q 340.9 330.88 344.05 336.48 Q 347.2 342.08 353.68 344.88 Q 360.15 347.68 369.6 347.68 L 374.15 347.68 L 374.15 351.18 Z M 359.45 250.38 Q 375.55 250.38 386.75 246.18 Q 397.95 241.98 405.13 233.05 Q 412.3 224.13 415.63 209.95 Q 418.95 195.78 418.95 175.83 Q 418.95 150.28 413.53 134.7 Q 408.1 119.13 396.2 111.95 Q 384.3 104.78 364.7 104.78 L 340.9 104.78 L 340.9 250.38 Z" style="fill: rgb(46, 42, 34);"/>
  <path d="M 32.252 380.757 L 467.749 380.757 L 467.749 399.771 L 32.252 399.771 L 32.252 380.757 Z" style="fill: rgb(46, 42, 34);" transform="matrix(1, 0, 0, 1, 0, -2.842170943040401e-14)"/>
</svg>
